<svg width="72" height="72" viewBox="0 0 72 72" fill="none" xmlns="http://www.w3.org/2000/svg">
<path d="M70.6699 10.1341C69.816 8.11494 68.5797 6.30025 67.0376 4.77948L56.0133 15.8338L56.0261 15.8466C56.332 16.1405 56.5869 16.4728 56.7908 16.8434C56.7908 16.8562 56.8035 16.8689 56.8035 16.8689C56.88 17.0223 56.9565 17.1756 57.0202 17.3418C57.0457 17.4185 57.0839 17.4951 57.0967 17.5718C57.1349 17.674 57.1604 17.7891 57.1859 17.9041C57.1986 17.9808 57.2241 18.0574 57.2368 18.1213C57.2368 18.1341 57.2368 18.1341 57.2368 18.1469C57.3006 18.5175 57.3133 18.7859 57.3133 18.8753L57.4663 46.8498C57.4917 51.8338 51.4762 54.3514 47.9714 50.8242L45.1293 47.9744C43.1411 45.9808 39.9294 45.9808 37.9412 47.9744L20.9906 64.9712C19.2191 66.7475 19.5249 69.3801 21.0543 70.8625C21.768 71.5526 22.7366 71.9999 23.8964 71.9999H46.5439C49.9978 71.9999 53.3114 70.6325 55.7584 68.2044L66.9994 57.0862C70.1601 53.9552 71.9444 49.6868 71.9444 45.2395V16.6006C71.9698 14.3002 71.511 12.1277 70.6699 10.1341Z" fill="#00E5B9"/>
<path d="M55.4272 0H25.4132C21.9593 0 18.6457 1.36741 16.1987 3.79553L4.71558 15.1565C1.69506 18.1214 0 22.1725 0 26.4153V48.3067C0 49.9297 0.866647 51.1949 2.03917 51.885C1.91172 51.7188 1.83525 51.5783 1.77153 51.4633C1.86074 51.6038 1.93721 51.7572 2.03917 51.885C3.54306 52.754 5.58223 52.7029 7.03514 51.2332L24.1004 34.1214C26.0886 32.1278 26.0886 28.8946 24.1004 26.901L21.2329 24.0256C17.7153 20.4984 20.226 14.4665 25.1965 14.492L53.0949 14.6454C54.2292 14.6454 55.2488 15.1054 56.0135 15.8339L67.0377 4.77955C64.0554 1.82748 59.9516 0 55.4272 0Z" fill="#00E5B9"/>
</svg>
